name rise36.2859peak64.2979fall75.1499.mot
datacolumns 19
datarows 35
range 11.23829100000000 11.29496800000000
endheader
time	ground_force1_vx	ground_force1_vy	ground_force1_vz	ground_force1_px	ground_force1_py	ground_force1_pz	ground_force2_vx	ground_force2_vy	ground_force2_vz	ground_force2_px	ground_force2_py	ground_force2_pz	ground_torque1_x	ground_torque1_y	ground_torque1_z	ground_torque2_x	ground_torque2_y	ground_torque2_z	
11.23829100000000	-7.54331200000000	46.34016200000000	-14.54527600000000	0.38410500000000	0.00000000000000	0.07155900000000	-56.58840200000000	792.39651400000002	-57.50839200000000	0.18064300000000	0.00000000000000	-0.11312100000000	0.00000000000000	-12.11883000000000	0.00000000000000	0.00000000000000	-30.77338500000000	0.00000000000000	
11.23996500000000	-8.10673500000000	52.93655000000000	-16.01495800000000	0.38757900000000	0.00000000000000	0.07268600000000	-57.34186600000000	789.64005499999996	-57.13131900000000	0.17980900000000	0.00000000000000	-0.11308900000000	0.00000000000000	-13.40037200000000	0.00000000000000	0.00000000000000	-30.74127400000000	0.00000000000000	
11.24162100000000	-8.52745700000000	59.46004700000000	-17.30627300000000	0.39087900000000	0.00000000000000	0.07373300000000	-58.10895200000000	786.78840900000000	-56.73176400000000	0.17897500000000	0.00000000000000	-0.11305400000000	0.00000000000000	-14.54304100000000	0.00000000000000	0.00000000000000	-30.70841400000000	0.00000000000000	
11.24329500000000	-8.79399200000000	65.84519500000000	-18.39705700000000	0.39402200000000	0.00000000000000	0.07471200000000	-58.88896200000000	783.84016499999996	-56.30936700000000	0.17814000000000	0.00000000000000	-0.11301500000000	0.00000000000000	-15.52704600000000	0.00000000000000	0.00000000000000	-30.67461700000000	0.00000000000000	
11.24496700000000	-8.90216900000000	72.05221700000000	-19.27682100000000	0.39702400000000	0.00000000000000	0.07563100000000	-59.68111400000000	780.79380700000002	-55.86378500000000	0.17730700000000	0.00000000000000	-0.11297300000000	0.00000000000000	-16.34231800000000	0.00000000000000	0.00000000000000	-30.63968300000000	0.00000000000000	
11.24662100000000	-8.85447100000000	78.06640400000001	-19.94591500000000	0.39989600000000	0.00000000000000	0.07649700000000	-60.48454000000000	777.64771699999994	-55.39470400000000	0.17647500000000	0.00000000000000	-0.11292600000000	0.00000000000000	-16.98792400000000	0.00000000000000	0.00000000000000	-30.60339200000000	0.00000000000000	
11.24828700000000	-8.65894600000000	83.89554000000000	-20.41394300000000	0.40264900000000	0.00000000000000	0.07731600000000	-61.29828400000000	774.40017899999998	-54.90183700000000	0.17564500000000	0.00000000000000	-0.11287600000000	0.00000000000000	-17.47084100000000	0.00000000000000	0.00000000000000	-30.56551000000000	0.00000000000000	
11.24996700000000	-8.32784800000000	89.56592300000000	-20.69769500000000	0.40529300000000	0.00000000000000	0.07809300000000	-62.12130400000000	771.04937900000004	-54.38492700000000	0.17481700000000	0.00000000000000	-0.11282200000000	0.00000000000000	-17.80427900000000	0.00000000000000	0.00000000000000	-30.52578600000000	0.00000000000000	
11.25162200000000	-7.87617200000000	95.11755400000000	-20.81884400000000	0.40783400000000	0.00000000000000	0.07883200000000	-62.95247000000000	767.59341400000005	-53.84375200000000	0.17399200000000	0.00000000000000	-0.11276300000000	0.00000000000000	-18.00577600000000	0.00000000000000	0.00000000000000	-30.48395400000000	0.00000000000000	
11.25329500000000	-7.32022300000000	100.59902900000000	-20.80164600000000	0.41027900000000	0.00000000000000	0.07953800000000	-63.79056600000000	764.03029200000003	-53.27812700000000	0.17317100000000	0.00000000000000	-0.11270000000000	0.00000000000000	-18.09527200000000	0.00000000000000	0.00000000000000	-30.43973400000000	0.00000000000000	
11.25495600000000	-6.67632100000000	106.06261200000000	-20.67083300000000	0.41263500000000	0.00000000000000	0.08021300000000	-64.63428900000000	760.35793899999999	-52.68790500000000	0.17235300000000	0.00000000000000	-0.11263300000000	0.00000000000000	-18.09330400000000	0.00000000000000	0.00000000000000	-30.39283300000000	0.00000000000000	
11.25662100000000	-5.95973400000000	111.55985000000000	-20.44981400000000	0.41490500000000	0.00000000000000	0.08086000000000	-65.48225100000001	756.57420999999999	-52.07298200000000	0.17154000000000	0.00000000000000	-0.11256100000000	0.00000000000000	-18.01946600000000	0.00000000000000	0.00000000000000	-30.34294400000000	0.00000000000000	
11.25829500000000	-5.18387300000000	117.13796499999999	-20.15930300000000	0.41709600000000	0.00000000000000	0.08148100000000	-66.33298200000000	752.67688799999996	-51.43330100000000	0.17073300000000	0.00000000000000	-0.11248500000000	0.00000000000000	-17.89119500000000	0.00000000000000	0.00000000000000	-30.28974800000000	0.00000000000000	
11.25996700000000	-4.35977400000000	122.83718900000000	-19.81637500000000	0.41921000000000	0.00000000000000	0.08207900000000	-67.18492700000000	748.66369799999995	-50.76885000000000	0.16993100000000	0.00000000000000	-0.11240500000000	0.00000000000000	-17.72293300000000	0.00000000000000	0.00000000000000	-30.23291500000000	0.00000000000000	
11.26162100000000	-3.49584600000000	128.68906300000000	-19.43397500000000	0.42125100000000	0.00000000000000	0.08265500000000	-68.03645200000000	744.53231300000004	-50.07967000000000	0.16913500000000	0.00000000000000	-0.11232000000000	0.00000000000000	-17.52566000000000	0.00000000000000	0.00000000000000	-30.17210600000000	0.00000000000000	
11.26328900000000	-2.59786500000000	134.71565500000000	-19.02080900000000	0.42322100000000	0.00000000000000	0.08321000000000	-68.88584600000000	740.28036399999996	-49.36585400000000	0.16834600000000	0.00000000000000	-0.11223000000000	0.00000000000000	-17.30676700000000	0.00000000000000	0.00000000000000	-30.10697100000000	0.00000000000000	
11.26495800000000	-1.66917100000000	140.92960199999999	-18.58158300000000	0.42512400000000	0.00000000000000	0.08374700000000	-69.73132099999999	735.90544899999998	-48.62754900000000	0.16756400000000	0.00000000000000	-0.11213600000000	0.00000000000000	-17.07022100000000	0.00000000000000	0.00000000000000	-30.03715200000000	0.00000000000000	
11.26662700000000	-0.71100700000000	147.33480599999999	-18.11748700000000	0.42696100000000	0.00000000000000	0.08426500000000	-70.57101800000000	731.40514599999995	-47.86496200000000	0.16679000000000	0.00000000000000	-0.11203600000000	0.00000000000000	-16.81695600000000	0.00000000000000	0.00000000000000	-29.96228500000000	0.00000000000000	
11.26829300000000	0.27704400000000	153.92762600000000	-17.62685600000000	0.42873400000000	0.00000000000000	0.08476700000000	-71.40300999999999	726.77702399999998	-47.07835800000000	0.16602400000000	0.00000000000000	-0.11193300000000	0.00000000000000	-16.54542500000000	0.00000000000000	0.00000000000000	-29.88199800000000	0.00000000000000	
11.26996200000000	1.29657700000000	160.69837300000000	-17.10592400000000	0.43044600000000	0.00000000000000	0.08525300000000	-72.22530300000000	722.01865899999996	-46.26806200000000	0.16526700000000	0.00000000000000	-0.11182400000000	0.00000000000000	-16.25223000000000	0.00000000000000	0.00000000000000	-29.79591700000000	0.00000000000000	
11.27162400000000	2.34988100000000	167.63294900000000	-16.54959200000000	0.43209700000000	0.00000000000000	0.08572400000000	-73.03584400000000	717.12764200000004	-45.43446300000000	0.16451900000000	0.00000000000000	-0.11171000000000	0.00000000000000	-15.93278500000000	0.00000000000000	0.00000000000000	-29.70366200000000	0.00000000000000	
11.27328600000000	3.43949200000000	174.71447400000000	-15.95215700000000	0.43368900000000	0.00000000000000	0.08618000000000	-73.83252500000000	712.10159899999996	-44.57801300000000	0.16378100000000	0.00000000000000	-0.11159200000000	0.00000000000000	-15.58194000000000	0.00000000000000	0.00000000000000	-29.60485100000000	0.00000000000000	
11.27495800000000	4.56780600000000	181.92479599999999	-15.30795400000000	0.43522200000000	0.00000000000000	0.08662300000000	-74.61318400000000	706.93820800000003	-43.69922700000000	0.16305300000000	0.00000000000000	-0.11146900000000	0.00000000000000	-15.19454800000000	0.00000000000000	0.00000000000000	-29.49910300000000	0.00000000000000	
11.27662700000000	5.73677500000000	189.24577900000000	-14.61187800000000	0.43669900000000	0.00000000000000	0.08705200000000	-75.37561599999999	701.63521200000002	-42.79868500000000	0.16233500000000	0.00000000000000	-0.11134000000000	0.00000000000000	-14.76591500000000	0.00000000000000	0.00000000000000	-29.38603400000000	0.00000000000000	
11.27829200000000	6.94768400000000	196.66033200000001	-13.85977200000000	0.43811900000000	0.00000000000000	0.08746900000000	-76.11757500000000	696.19043999999997	-41.87703400000000	0.16162800000000	0.00000000000000	-0.11120700000000	0.00000000000000	-14.29215300000000	0.00000000000000	0.00000000000000	-29.26526400000000	0.00000000000000	
11.27995500000000	8.20102100000000	204.15314699999999	-13.04867900000000	0.43948300000000	0.00000000000000	0.08787300000000	-76.83677900000001	690.60182099999997	-40.93498100000000	0.16093200000000	0.00000000000000	-0.11106900000000	0.00000000000000	-13.77040700000000	0.00000000000000	0.00000000000000	-29.13641500000000	0.00000000000000	
11.28162700000000	9.49641700000000	211.71115200000000	-12.17696800000000	0.44079300000000	0.00000000000000	0.08826500000000	-77.53091999999999	684.86740899999995	-39.97330300000000	0.16024800000000	0.00000000000000	-0.11092600000000	0.00000000000000	-13.19896800000000	0.00000000000000	0.00000000000000	-28.99911200000000	0.00000000000000	
11.28329500000000	10.83266700000000	219.32369900000000	-11.24434000000000	0.44204800000000	0.00000000000000	0.08864500000000	-78.19766700000000	678.98539400000004	-38.99283400000000	0.15957500000000	0.00000000000000	-0.11077900000000	0.00000000000000	-12.57729300000000	0.00000000000000	0.00000000000000	-28.85298900000000	0.00000000000000	
11.28495300000000	12.20779500000000	226.98253500000001	-10.25174900000000	0.44324800000000	0.00000000000000	0.08901300000000	-78.83467400000001	672.95412399999998	-37.99447600000000	0.15891500000000	0.00000000000000	-0.11062600000000	0.00000000000000	-11.90593600000000	0.00000000000000	0.00000000000000	-28.69768200000000	0.00000000000000	
11.28662800000000	13.61916600000000	234.68159000000000	-9.20125100000000	0.44439500000000	0.00000000000000	0.08937100000000	-79.43958499999999	666.77212099999997	-36.97918700000000	0.15826600000000	0.00000000000000	-0.11046900000000	0.00000000000000	-11.18643100000000	0.00000000000000	0.00000000000000	-28.53283900000000	0.00000000000000	
11.28828800000000	15.06361400000000	242.41664700000001	-8.09581200000000	0.44548900000000	0.00000000000000	0.08971700000000	-80.01004500000001	660.43809599999997	-35.94798900000000	0.15763100000000	0.00000000000000	-0.11030600000000	0.00000000000000	-10.42111500000000	0.00000000000000	0.00000000000000	-28.35811800000000	0.00000000000000	
11.28996300000000	16.53758600000000	250.18494200000001	-6.93909500000000	0.44652900000000	0.00000000000000	0.09005300000000	-80.54370400000001	653.95096100000001	-34.90196000000000	0.15700800000000	0.00000000000000	-0.11013900000000	0.00000000000000	-9.61295300000000	0.00000000000000	0.00000000000000	-28.17318500000000	0.00000000000000	
11.29162200000000	18.03728200000000	257.98472900000002	-5.73524100000000	0.44751600000000	0.00000000000000	0.09037800000000	-81.03822599999999	647.30984500000000	-33.84223300000000	0.15639800000000	0.00000000000000	-0.10996700000000	0.00000000000000	-8.76534700000000	0.00000000000000	0.00000000000000	-27.97772400000000	0.00000000000000	
11.29329200000000	19.55878200000000	265.81486500000000	-4.48867500000000	0.44845100000000	0.00000000000000	0.09069200000000	-81.49129600000001	640.51410399999997	-32.77000000000000	0.15580100000000	0.00000000000000	-0.10979100000000	0.00000000000000	-7.88195700000000	0.00000000000000	0.00000000000000	-27.77142900000000	0.00000000000000	
11.29496800000000	21.09815300000000	273.67443500000002	-3.20392500000000	0.44933400000000	0.00000000000000	0.09099600000000	-81.90062900000000	633.56332299999997	-31.68650100000000	0.15521700000000	0.00000000000000	-0.10960900000000	0.00000000000000	-6.96655200000000	0.00000000000000	0.00000000000000	-27.55401400000000	0.00000000000000	
